# This file uses millimeters as units for non-parametric coordinates.

mtllib GEO_CintaAislante.mtl
g default
v 0.229812 -0.080273 -0.074670
v 0.195489 -0.080273 -0.142031
v 0.142031 -0.080273 -0.195489
v 0.074670 -0.080273 -0.229812
v 0.000000 -0.080273 -0.241638
v -0.074670 -0.080273 -0.229812
v -0.142031 -0.080273 -0.195489
v -0.195489 -0.080273 -0.142031
v -0.229811 -0.080273 -0.074670
v -0.241638 -0.080273 0.000000
v -0.229811 -0.080273 0.074670
v -0.195489 -0.080273 0.142031
v -0.142031 -0.080273 0.195489
v -0.074670 -0.080273 0.229811
v -0.000000 -0.080273 0.241638
v 0.074670 -0.080273 0.229811
v 0.142031 -0.080273 0.195489
v 0.195489 -0.080273 0.142031
v 0.229811 -0.080273 0.074670
v 0.241638 -0.080273 0.000000
v 0.229812 0.080273 -0.074670
v 0.195489 0.080273 -0.142031
v 0.142031 0.080273 -0.195489
v 0.074670 0.080273 -0.229812
v -0.000000 0.080273 -0.241638
v -0.074670 0.080273 -0.229812
v -0.142031 0.080273 -0.195489
v -0.195489 0.080273 -0.142031
v -0.229811 0.080273 -0.074670
v -0.241638 0.080273 -0.000000
v -0.229811 0.080273 0.074670
v -0.195489 0.080273 0.142031
v -0.142031 0.080273 0.195489
v -0.074670 0.080273 0.229811
v -0.000000 0.080273 0.241638
v 0.074670 0.080273 0.229811
v 0.142031 0.080273 0.195489
v 0.195489 0.080273 0.142031
v 0.229811 0.080273 0.074670
v 0.241638 0.080273 -0.000000
v 0.136442 -0.080273 -0.044333
v 0.116065 -0.080273 -0.084326
v 0.084326 -0.080273 -0.116065
v 0.044333 -0.080273 -0.136442
v -0.000000 -0.080273 -0.143464
v -0.044333 -0.080273 -0.136442
v -0.084326 -0.080273 -0.116065
v -0.116065 -0.080273 -0.084326
v -0.136442 -0.080273 -0.044333
v -0.143464 -0.080273 -0.000000
v -0.136442 -0.080273 0.044333
v -0.116065 -0.080273 0.084326
v -0.084326 -0.080273 0.116065
v -0.044333 -0.080273 0.136442
v -0.000000 -0.080273 0.143464
v 0.044333 -0.080273 0.136442
v 0.084326 -0.080273 0.116065
v 0.116065 -0.080273 0.084326
v 0.136442 -0.080273 0.044333
v 0.143464 -0.080273 -0.000000
v 0.136442 0.080273 -0.044333
v 0.116065 0.080273 -0.084326
v 0.084326 0.080273 -0.116065
v 0.044333 0.080273 -0.136442
v -0.000000 0.080273 -0.143464
v -0.044333 0.080273 -0.136442
v -0.084326 0.080273 -0.116065
v -0.116065 0.080273 -0.084326
v -0.136442 0.080273 -0.044333
v -0.143464 0.080273 -0.000000
v -0.136442 0.080273 0.044333
v -0.116065 0.080273 0.084326
v -0.084326 0.080273 0.116065
v -0.044333 0.080273 0.136442
v -0.000000 0.080273 0.143464
v 0.044333 0.080273 0.136442
v 0.084326 0.080273 0.116065
v 0.116065 0.080273 0.084326
v 0.136442 0.080273 0.044333
v 0.143464 0.080273 -0.000000
v 0.136442 -0.075944 -0.044333
v 0.116065 -0.075944 -0.084326
v 0.084326 -0.075944 -0.116065
v 0.044333 -0.075944 -0.136442
v -0.000000 -0.075944 -0.143464
v -0.044333 -0.075944 -0.136442
v -0.084326 -0.075944 -0.116065
v -0.116065 -0.075944 -0.084326
v -0.136442 -0.075944 -0.044333
v -0.143464 -0.075944 -0.000000
v -0.136442 -0.075944 0.044333
v -0.116065 -0.075944 0.084326
v -0.084326 -0.075944 0.116065
v -0.044333 -0.075944 0.136442
v -0.000000 -0.075944 0.143464
v 0.044333 -0.075944 0.136442
v 0.084326 -0.075944 0.116065
v 0.116065 -0.075944 0.084326
v 0.136442 -0.075944 0.044333
v 0.143464 -0.075944 -0.000000
v 0.136442 0.075944 -0.044333
v 0.116065 0.075944 -0.084326
v 0.084326 0.075944 -0.116065
v 0.044333 0.075944 -0.136442
v -0.000000 0.075944 -0.143464
v -0.044333 0.075944 -0.136442
v -0.084326 0.075944 -0.116065
v -0.116065 0.075944 -0.084326
v -0.136442 0.075944 -0.044333
v -0.143464 0.075944 -0.000000
v -0.136442 0.075944 0.044333
v -0.116065 0.075944 0.084326
v -0.084326 0.075944 0.116065
v -0.044333 0.075944 0.136442
v -0.000000 0.075944 0.143464
v 0.044333 0.075944 0.136442
v 0.084326 0.075944 0.116065
v 0.116065 0.075944 0.084326
v 0.136442 0.075944 0.044333
v 0.143464 0.075944 -0.000000
v 0.245255 -0.080273 -0.000685
v 0.245255 0.080273 -0.000685
v 0.247852 -0.080273 0.041612
v 0.247852 0.080273 0.041612
v 0.251514 -0.080273 0.040014
v 0.251514 0.080273 0.040014
v 0.263582 -0.080273 0.080572
v 0.263582 0.080273 0.080572
v 0.267023 -0.080273 0.078543
v 0.267023 0.080273 0.078543
v 0.288684 -0.080273 0.112121
v 0.288684 0.080273 0.112121
v 0.291826 -0.080273 0.109653
v 0.291826 0.080273 0.109653
v 0.320961 -0.080273 0.133120
v 0.320961 0.080273 0.133120
v 0.322623 -0.080273 0.129487
v 0.322623 0.080273 0.129487
vt 0.375000 0.312500
vt 0.387500 0.312500
vt 0.387500 0.687500
vt 0.375000 0.687500
vt 0.400000 0.312500
vt 0.400000 0.687500
vt 0.412500 0.312500
vt 0.412500 0.687500
vt 0.425000 0.312500
vt 0.425000 0.687500
vt 0.437500 0.312500
vt 0.437500 0.687500
vt 0.450000 0.312500
vt 0.450000 0.687500
vt 0.462500 0.312500
vt 0.462500 0.687500
vt 0.475000 0.312500
vt 0.475000 0.687500
vt 0.487500 0.312500
vt 0.487500 0.687500
vt 0.500000 0.312500
vt 0.500000 0.687500
vt 0.512500 0.312500
vt 0.512500 0.687500
vt 0.525000 0.312500
vt 0.525000 0.687500
vt 0.537500 0.312500
vt 0.537500 0.687500
vt 0.550000 0.312500
vt 0.550000 0.687500
vt 0.562500 0.312500
vt 0.562500 0.687500
vt 0.575000 0.312500
vt 0.575000 0.687500
vt 0.587500 0.312500
vt 0.587500 0.687500
vt 0.600000 0.312500
vt 0.600000 0.687500
vt 0.612500 0.312500
vt 0.612500 0.687500
vt 0.625000 0.687500
vt 0.612500 0.687500
vt 0.612500 0.312500
vt 0.625000 0.312500
vt 0.000000 0.000000
vt 1.000000 0.000000
vt 1.000000 1.000000
vt 0.000000 1.000000
vt 0.000000 0.000000
vt 1.000000 0.000000
vt 1.000000 1.000000
vt 0.000000 1.000000
vt 0.000000 0.000000
vt 1.000000 0.000000
vt 1.000000 1.000000
vt 0.000000 1.000000
vt 0.000000 0.000000
vt 1.000000 0.000000
vt 1.000000 1.000000
vt 0.000000 1.000000
vt 0.000000 0.000000
vt 1.000000 0.000000
vt 1.000000 1.000000
vt 0.000000 1.000000
vt 0.000000 0.000000
vt 1.000000 0.000000
vt 1.000000 1.000000
vt 0.000000 1.000000
vt 0.000000 0.000000
vt 1.000000 0.000000
vt 1.000000 1.000000
vt 0.000000 1.000000
vt 0.000000 0.000000
vt 1.000000 0.000000
vt 1.000000 1.000000
vt 0.000000 1.000000
vt 0.000000 0.000000
vt 1.000000 0.000000
vt 1.000000 1.000000
vt 0.000000 1.000000
vt 0.000000 0.000000
vt 1.000000 0.000000
vt 1.000000 1.000000
vt 0.000000 1.000000
vt 0.000000 0.000000
vt 1.000000 0.000000
vt 1.000000 1.000000
vt 0.000000 1.000000
vt 0.000000 0.000000
vt 1.000000 0.000000
vt 1.000000 1.000000
vt 0.000000 1.000000
vt 0.000000 0.000000
vt 1.000000 0.000000
vt 1.000000 1.000000
vt 0.000000 1.000000
vt 0.000000 0.000000
vt 1.000000 0.000000
vt 1.000000 1.000000
vt 0.000000 1.000000
vt 0.000000 0.000000
vt 1.000000 0.000000
vt 1.000000 1.000000
vt 0.000000 1.000000
vt 0.000000 0.000000
vt 1.000000 0.000000
vt 1.000000 1.000000
vt 0.000000 1.000000
vt 0.000000 0.000000
vt 1.000000 0.000000
vt 1.000000 1.000000
vt 0.000000 1.000000
vt 0.000000 0.000000
vt 1.000000 0.000000
vt 1.000000 1.000000
vt 0.000000 1.000000
vt 0.000000 0.000000
vt 1.000000 0.000000
vt 1.000000 1.000000
vt 0.000000 1.000000
vt 0.000000 0.000000
vt 1.000000 0.000000
vt 1.000000 1.000000
vt 0.000000 1.000000
vt 0.000000 0.000000
vt 1.000000 0.000000
vt 1.000000 1.000000
vt 0.000000 1.000000
vt 0.000000 0.000000
vt 1.000000 0.000000
vt 1.000000 1.000000
vt 0.000000 1.000000
vt 0.000000 0.000000
vt 1.000000 0.000000
vt 1.000000 1.000000
vt 0.000000 1.000000
vt 0.000000 0.000000
vt 1.000000 0.000000
vt 1.000000 1.000000
vt 0.000000 1.000000
vt 0.000000 0.000000
vt 1.000000 0.000000
vt 1.000000 1.000000
vt 0.000000 1.000000
vt 0.000000 0.000000
vt 1.000000 0.000000
vt 1.000000 1.000000
vt 0.000000 1.000000
vt 0.000000 0.000000
vt 1.000000 0.000000
vt 1.000000 1.000000
vt 0.000000 1.000000
vt 0.000000 0.000000
vt 1.000000 0.000000
vt 1.000000 1.000000
vt 0.000000 1.000000
vt 0.000000 0.000000
vt 1.000000 0.000000
vt 1.000000 1.000000
vt 0.000000 1.000000
vt 0.000000 0.000000
vt 1.000000 0.000000
vt 1.000000 1.000000
vt 0.000000 1.000000
vt 0.000000 0.000000
vt 1.000000 0.000000
vt 1.000000 1.000000
vt 0.000000 1.000000
vt 0.000000 0.000000
vt 1.000000 0.000000
vt 1.000000 1.000000
vt 0.000000 1.000000
vt 0.000000 0.000000
vt 1.000000 0.000000
vt 1.000000 1.000000
vt 0.000000 1.000000
vt 0.000000 0.000000
vt 1.000000 0.000000
vt 1.000000 1.000000
vt 0.000000 1.000000
vt 0.000000 0.000000
vt 1.000000 0.000000
vt 1.000000 1.000000
vt 0.000000 1.000000
vt 0.000000 0.000000
vt 1.000000 0.000000
vt 1.000000 1.000000
vt 0.000000 1.000000
vt 0.000000 0.000000
vt 1.000000 0.000000
vt 1.000000 1.000000
vt 0.000000 1.000000
vt 0.000000 0.000000
vt 1.000000 0.000000
vt 1.000000 1.000000
vt 0.000000 1.000000
vt 0.000000 0.000000
vt 1.000000 0.000000
vt 1.000000 1.000000
vt 0.000000 1.000000
vt 0.000000 0.000000
vt 1.000000 0.000000
vt 1.000000 1.000000
vt 0.000000 1.000000
vt 0.000000 0.000000
vt 1.000000 0.000000
vt 1.000000 0.000000
vt 0.000000 0.000000
vt 0.000000 0.000000
vt 1.000000 0.000000
vt 1.000000 0.000000
vt 0.000000 0.000000
vt 0.000000 0.000000
vt 1.000000 0.000000
vt 1.000000 0.000000
vt 0.000000 0.000000
vt 0.000000 0.000000
vt 1.000000 0.000000
vt 1.000000 0.000000
vt 0.000000 0.000000
vt 0.000000 0.000000
vt 1.000000 0.000000
vt 1.000000 0.000000
vt 0.000000 0.000000
vt 0.000000 0.000000
vt 1.000000 0.000000
vt 1.000000 0.000000
vt 0.000000 0.000000
vt 0.000000 0.000000
vt 1.000000 0.000000
vt 1.000000 0.000000
vt 0.000000 0.000000
vt 0.000000 0.000000
vt 1.000000 0.000000
vt 1.000000 0.000000
vt 0.000000 0.000000
vt 0.000000 0.000000
vt 1.000000 0.000000
vt 1.000000 0.000000
vt 0.000000 0.000000
vt 0.000000 0.000000
vt 1.000000 0.000000
vt 1.000000 0.000000
vt 0.000000 0.000000
vt 0.000000 0.000000
vt 1.000000 0.000000
vt 1.000000 0.000000
vt 0.000000 0.000000
vt 0.000000 0.000000
vt 1.000000 0.000000
vt 1.000000 0.000000
vt 0.000000 0.000000
vt 0.000000 0.000000
vt 1.000000 0.000000
vt 1.000000 0.000000
vt 0.000000 0.000000
vt 0.000000 0.000000
vt 1.000000 0.000000
vt 1.000000 0.000000
vt 0.000000 0.000000
vt 0.000000 0.000000
vt 1.000000 0.000000
vt 1.000000 0.000000
vt 0.000000 0.000000
vt 0.000000 0.000000
vt 1.000000 0.000000
vt 1.000000 0.000000
vt 0.000000 0.000000
vt 0.000000 0.000000
vt 1.000000 0.000000
vt 1.000000 0.000000
vt 0.000000 0.000000
vt 0.000000 0.000000
vt 1.000000 0.000000
vt 1.000000 0.000000
vt 0.000000 0.000000
vt 0.000000 0.000000
vt 1.000000 0.000000
vt 1.000000 0.000000
vt 0.000000 0.000000
vt 0.000000 0.000000
vt 1.000000 0.000000
vt 1.000000 0.000000
vt 0.000000 0.000000
vt 0.000000 0.000000
vt 1.000000 0.000000
vt 1.000000 0.000000
vt 0.000000 0.000000
vt 0.000000 0.000000
vt 1.000000 0.000000
vt 1.000000 0.000000
vt 0.000000 0.000000
vt 0.000000 0.000000
vt 1.000000 0.000000
vt 1.000000 0.000000
vt 0.000000 0.000000
vt 0.000000 0.000000
vt 1.000000 0.000000
vt 1.000000 0.000000
vt 0.000000 0.000000
vt 0.000000 0.000000
vt 1.000000 0.000000
vt 1.000000 0.000000
vt 0.000000 0.000000
vt 0.000000 0.000000
vt 1.000000 0.000000
vt 1.000000 0.000000
vt 0.000000 0.000000
vt 0.000000 0.000000
vt 1.000000 0.000000
vt 1.000000 0.000000
vt 0.000000 0.000000
vt 0.000000 0.000000
vt 1.000000 0.000000
vt 1.000000 0.000000
vt 0.000000 0.000000
vt 0.000000 0.000000
vt 1.000000 0.000000
vt 1.000000 0.000000
vt 0.000000 0.000000
vt 0.000000 0.000000
vt 1.000000 0.000000
vt 1.000000 0.000000
vt 0.000000 0.000000
vt 0.000000 0.000000
vt 1.000000 0.000000
vt 1.000000 0.000000
vt 0.000000 0.000000
vt 0.000000 0.000000
vt 1.000000 0.000000
vt 1.000000 0.000000
vt 0.000000 0.000000
vt 0.000000 0.000000
vt 1.000000 0.000000
vt 1.000000 0.000000
vt 0.000000 0.000000
vt 0.000000 0.000000
vt 1.000000 0.000000
vt 1.000000 0.000000
vt 0.000000 0.000000
vt 0.000000 0.000000
vt 1.000000 0.000000
vt 1.000000 0.000000
vt 0.000000 0.000000
vt 0.000000 0.000000
vt 1.000000 0.000000
vt 1.000000 0.000000
vt 0.000000 0.000000
vt 0.000000 0.000000
vt 1.000000 0.000000
vt 1.000000 0.000000
vt 0.000000 0.000000
vt 0.000000 0.000000
vt 1.000000 0.000000
vt 1.000000 0.000000
vt 0.000000 0.000000
vt 0.000000 0.000000
vt 1.000000 0.000000
vt 1.000000 0.000000
vt 0.000000 0.000000
vt 0.000000 0.000000
vt 1.000000 0.000000
vt 1.000000 0.000000
vt 0.000000 0.000000
vt 0.612500 0.687500
vt 0.612500 0.312500
vt 0.612500 0.312500
vt 0.612500 0.687500
vt 0.612500 0.312500
vt 0.612500 0.687500
vt 0.612500 0.312500
vt 0.612500 0.687500
vt 0.612500 0.312500
vt 0.612500 0.687500
vt 0.612500 0.312500
vt 0.612500 0.687500
vt 0.612500 0.312500
vt 0.612500 0.687500
vt 0.612500 0.312500
vt 0.612500 0.687500
vn 0.943244 0.000000 -0.332102
vn 0.809017 0.000000 -0.587785
vn 0.809017 0.000000 -0.587785
vn 0.943244 0.000000 -0.332102
vn 0.587785 0.000000 -0.809017
vn 0.587785 0.000000 -0.809017
vn 0.309017 0.000000 -0.951057
vn 0.309017 0.000000 -0.951057
vn 0.000000 0.000000 -1.000000
vn 0.000000 0.000000 -1.000000
vn -0.309018 0.000000 -0.951056
vn -0.309018 0.000000 -0.951056
vn -0.587786 0.000000 -0.809016
vn -0.587786 0.000000 -0.809016
vn -0.809018 0.000000 -0.587785
vn -0.809018 0.000000 -0.587785
vn -0.951056 0.000000 -0.309018
vn -0.951056 0.000000 -0.309018
vn -1.000000 0.000000 0.000000
vn -1.000000 0.000000 0.000000
vn -0.951056 0.000000 0.309018
vn -0.951056 0.000000 0.309018
vn -0.809017 0.000000 0.587785
vn -0.809017 0.000000 0.587785
vn -0.587786 0.000000 0.809017
vn -0.587786 0.000000 0.809017
vn -0.309017 0.000000 0.951056
vn -0.309017 0.000000 0.951056
vn 0.000000 0.000000 1.000000
vn 0.000000 0.000000 1.000000
vn 0.309017 0.000000 0.951057
vn 0.309017 0.000000 0.951057
vn 0.587785 0.000000 0.809017
vn 0.587785 0.000000 0.809017
vn 0.809017 0.000000 0.587785
vn 0.809017 0.000000 0.587785
vn 0.951057 0.000000 0.309017
vn 0.951057 0.000000 0.309017
vn 0.987688 0.000000 0.156434
vn 0.987688 0.000000 0.156434
vn 0.982561 0.000000 -0.185939
vn 0.982561 0.000000 -0.185939
vn 0.000000 -1.000000 0.000000
vn 0.000000 -1.000000 0.000000
vn 0.000000 -1.000000 0.000000
vn 0.000000 -1.000000 0.000000
vn 0.000000 -1.000000 0.000000
vn 0.000000 -1.000000 0.000000
vn 0.000000 -1.000000 0.000000
vn 0.000000 -1.000000 0.000000
vn 0.000000 -1.000000 0.000000
vn 0.000000 -1.000000 0.000000
vn 0.000000 -1.000000 0.000000
vn 0.000000 -1.000000 0.000000
vn 0.000000 -1.000000 0.000000
vn 0.000000 -1.000000 0.000000
vn 0.000000 -1.000000 0.000000
vn 0.000000 -1.000000 0.000000
vn 0.000000 -1.000000 0.000000
vn 0.000000 -1.000000 0.000000
vn 0.000000 -1.000000 0.000000
vn 0.000000 -1.000000 0.000000
vn 0.000000 -1.000000 -0.000000
vn 0.000000 -1.000000 -0.000000
vn 0.000000 -1.000000 -0.000000
vn 0.000000 -1.000000 -0.000000
vn 0.000000 -1.000000 0.000000
vn 0.000000 -1.000000 0.000000
vn 0.000000 -1.000000 0.000000
vn 0.000000 -1.000000 0.000000
vn 0.000000 -1.000000 0.000000
vn 0.000000 -1.000000 0.000000
vn 0.000000 -1.000000 -0.000000
vn 0.000000 -1.000000 -0.000000
vn 0.000000 -1.000000 -0.000000
vn 0.000000 -1.000000 -0.000000
vn 0.000000 -1.000000 -0.000000
vn 0.000000 -1.000000 -0.000000
vn 0.000000 -1.000000 -0.000000
vn 0.000000 -1.000000 -0.000000
vn 0.000000 -1.000000 0.000000
vn 0.000000 -1.000000 0.000000
vn 0.000000 1.000000 0.000000
vn 0.000000 1.000000 -0.000000
vn 0.000000 1.000000 -0.000000
vn 0.000000 1.000000 0.000000
vn 0.000000 1.000000 -0.000000
vn 0.000000 1.000000 -0.000000
vn 0.000000 1.000000 0.000000
vn 0.000000 1.000000 0.000000
vn 0.000000 1.000000 -0.000000
vn 0.000000 1.000000 -0.000000
vn 0.000000 1.000000 0.000000
vn 0.000000 1.000000 0.000000
vn 0.000000 1.000000 0.000000
vn 0.000000 1.000000 0.000000
vn 0.000000 1.000000 0.000000
vn 0.000000 1.000000 0.000000
vn 0.000000 1.000000 0.000000
vn 0.000000 1.000000 0.000000
vn 0.000000 1.000000 0.000000
vn 0.000000 1.000000 0.000000
vn 0.000000 1.000000 0.000000
vn 0.000000 1.000000 0.000000
vn 0.000000 1.000000 0.000000
vn 0.000000 1.000000 0.000000
vn 0.000000 1.000000 0.000000
vn 0.000000 1.000000 0.000000
vn 0.000000 1.000000 0.000000
vn 0.000000 1.000000 0.000000
vn 0.000000 1.000000 0.000000
vn 0.000000 1.000000 0.000000
vn 0.000000 1.000000 -0.000000
vn 0.000000 1.000000 -0.000000
vn 0.000000 1.000000 0.000000
vn 0.000000 1.000000 0.000000
vn 0.000000 1.000000 -0.000000
vn 0.000000 1.000000 -0.000000
vn 0.000000 1.000000 -0.000000
vn 0.000000 1.000000 -0.000000
vn 0.000000 1.000000 0.000000
vn 0.000000 1.000000 0.000000
vn -0.809019 0.000000 0.587783
vn -0.951056 0.000000 0.309017
vn -0.951056 0.000000 0.309017
vn -0.809019 0.000000 0.587783
vn -0.587785 0.000000 0.809017
vn -0.587785 0.000000 0.809017
vn -0.309017 0.000000 0.951057
vn -0.309017 0.000000 0.951057
vn 0.000000 0.000000 1.000000
vn 0.000000 0.000000 1.000000
vn 0.309018 0.000000 0.951056
vn 0.309018 0.000000 0.951056
vn 0.587785 0.000000 0.809017
vn 0.587785 0.000000 0.809017
vn 0.809018 0.000000 0.587784
vn 0.809018 0.000000 0.587784
vn 0.951056 0.000000 0.309017
vn 0.951056 0.000000 0.309017
vn 1.000000 0.000000 -0.000000
vn 1.000000 0.000000 -0.000000
vn 0.951056 0.000000 -0.309017
vn 0.951056 0.000000 -0.309017
vn 0.809017 0.000000 -0.587785
vn 0.809017 0.000000 -0.587785
vn 0.587785 0.000000 -0.809017
vn 0.587785 0.000000 -0.809017
vn 0.309018 0.000000 -0.951056
vn 0.309018 0.000000 -0.951056
vn 0.000000 0.000000 -1.000000
vn 0.000000 0.000000 -1.000000
vn -0.309018 0.000000 -0.951056
vn -0.309018 0.000000 -0.951056
vn -0.587785 0.000000 -0.809017
vn -0.587785 0.000000 -0.809017
vn -0.809017 0.000000 -0.587785
vn -0.809017 0.000000 -0.587785
vn -0.951056 0.000000 -0.309019
vn -0.951056 0.000000 -0.309019
vn -1.000000 0.000000 0.000000
vn -1.000000 0.000000 0.000000
vn -0.951056 0.000000 0.309017
vn -0.809019 0.000000 0.587783
vn -0.809019 0.000000 0.587783
vn -0.951056 0.000000 0.309017
vn -0.587785 0.000000 0.809017
vn -0.587785 0.000000 0.809017
vn -0.309017 0.000000 0.951057
vn -0.309017 0.000000 0.951057
vn 0.000000 0.000000 1.000000
vn 0.000000 0.000000 1.000000
vn 0.309019 0.000000 0.951056
vn 0.309019 0.000000 0.951056
vn 0.587785 0.000000 0.809017
vn 0.587785 0.000000 0.809017
vn 0.809018 0.000000 0.587784
vn 0.809018 0.000000 0.587784
vn 0.951057 0.000000 0.309017
vn 0.951057 0.000000 0.309017
vn 1.000000 0.000000 -0.000000
vn 1.000000 0.000000 -0.000000
vn 0.951057 0.000000 -0.309017
vn 0.951057 0.000000 -0.309017
vn 0.809017 0.000000 -0.587785
vn 0.809017 0.000000 -0.587785
vn 0.587785 0.000000 -0.809017
vn 0.587785 0.000000 -0.809017
vn 0.309018 0.000000 -0.951056
vn 0.309018 0.000000 -0.951056
vn 0.000000 0.000000 -1.000000
vn 0.000000 0.000000 -1.000000
vn -0.309018 0.000000 -0.951056
vn -0.309018 0.000000 -0.951056
vn -0.587785 0.000000 -0.809017
vn -0.587785 0.000000 -0.809017
vn -0.809017 0.000000 -0.587785
vn -0.809017 0.000000 -0.587785
vn -0.951056 0.000000 -0.309019
vn -0.951056 0.000000 -0.309019
vn -1.000000 0.000000 0.000000
vn -1.000000 0.000000 0.000000
vn 0.000000 -1.000000 0.000000
vn 0.000000 1.000000 0.000000
vn 0.909375 0.000000 0.415977
vn 0.909375 0.000000 0.415977
vn 0.909375 0.000000 0.415977
vn 0.909375 0.000000 0.415977
vn -0.989032 0.000000 0.147702
vn -0.989032 0.000000 0.147702
vn -0.964857 0.000000 0.262776
vn -0.964857 0.000000 0.262776
vn 0.000000 -1.000000 0.000000
vn 0.000000 -1.000000 0.000000
vn 0.964266 0.000000 -0.264936
vn 0.964266 0.000000 -0.264936
vn 0.000000 1.000000 0.000000
vn 0.000000 1.000000 0.000000
vn -0.865370 0.000000 0.501133
vn -0.865370 0.000000 0.501133
vn 0.000000 -1.000000 0.000001
vn 0.000000 -1.000000 0.000001
vn 0.865456 0.000000 -0.500985
vn 0.865456 0.000000 -0.500985
vn 0.000000 1.000000 0.000000
vn 0.000000 1.000000 0.000000
vn -0.675376 0.000000 0.737473
vn -0.675376 0.000000 0.737473
vn 0.000000 -1.000000 -0.000000
vn 0.000000 -1.000000 0.000000
vn 0.675560 0.000000 -0.737305
vn 0.675560 0.000000 -0.737305
vn 0.000000 1.000000 -0.000001
vn 0.000000 1.000000 -0.000001
vn -0.545330 0.000000 0.838222
vn -0.545330 0.000000 0.838222
vn 0.000000 -1.000000 -0.000002
vn 0.000000 -1.000000 -0.000002
vn 0.541434 0.000000 -0.840743
vn 0.541434 0.000000 -0.840743
vn 0.000000 1.000000 -0.000002
vn 0.000000 1.000000 -0.000002
s 1
g GEO_Cinta
usemtl standardSurface2SG
f 1/1/1 2/2/2 22/3/3 21/4/4
f 2/2/2 3/5/5 23/6/6 22/3/3
f 3/5/5 4/7/7 24/8/8 23/6/6
f 4/7/7 5/9/9 25/10/10 24/8/8
f 5/9/9 6/11/11 26/12/12 25/10/10
f 6/11/11 7/13/13 27/14/14 26/12/12
f 7/13/13 8/15/15 28/16/16 27/14/14
f 8/15/15 9/17/17 29/18/18 28/16/16
f 9/17/17 10/19/19 30/20/20 29/18/18
f 10/19/19 11/21/21 31/22/22 30/20/20
f 11/21/21 12/23/23 32/24/24 31/22/22
f 12/23/23 13/25/25 33/26/26 32/24/24
f 13/25/25 14/27/27 34/28/28 33/26/26
f 14/27/27 15/29/29 35/30/30 34/28/28
f 15/29/29 16/31/31 36/32/32 35/30/30
f 16/31/31 17/33/33 37/34/34 36/32/32
f 17/33/33 18/35/35 38/36/36 37/34/34
f 18/35/35 19/37/37 39/38/38 38/36/36
f 19/37/37 20/39/39 40/40/40 39/38/38
f 21/41/4 122/42/41 121/43/42 1/44/1
s 2
f 2/45/43 1/46/44 41/47/45 42/48/46
f 3/49/47 2/50/43 42/51/46 43/52/48
f 4/53/49 3/54/47 43/55/48 44/56/50
f 5/57/51 4/58/49 44/59/50 45/60/52
f 6/61/53 5/62/51 45/63/52 46/64/54
f 7/65/55 6/66/53 46/67/54 47/68/56
f 8/69/57 7/70/55 47/71/56 48/72/58
f 9/73/59 8/74/57 48/75/58 49/76/60
f 10/77/61 9/78/59 49/79/60 50/80/62
f 11/81/63 10/82/61 50/83/62 51/84/64
f 12/85/65 11/86/63 51/87/64 52/88/66
f 13/89/67 12/90/65 52/91/66 53/92/68
f 14/93/69 13/94/67 53/95/68 54/96/70
f 15/97/71 14/98/69 54/99/70 55/100/72
f 16/101/73 15/102/71 55/103/72 56/104/74
f 17/105/75 16/106/73 56/107/74 57/108/76
f 18/109/77 17/110/75 57/111/76 58/112/78
f 19/113/79 18/114/77 58/115/78 59/116/80
f 20/117/81 19/118/79 59/119/80 60/120/82
f 1/121/44 20/122/81 60/123/82 41/124/45
s 3
f 21/125/83 22/126/84 62/127/85 61/128/86
f 22/129/84 23/130/87 63/131/88 62/132/85
f 23/133/87 24/134/89 64/135/90 63/136/88
f 24/137/89 25/138/91 65/139/92 64/140/90
f 25/141/91 26/142/93 66/143/94 65/144/92
f 26/145/93 27/146/95 67/147/96 66/148/94
f 27/149/95 28/150/97 68/151/98 67/152/96
f 28/153/97 29/154/99 69/155/100 68/156/98
f 29/157/99 30/158/101 70/159/102 69/160/100
f 30/161/101 31/162/103 71/163/104 70/164/102
f 31/165/103 32/166/105 72/167/106 71/168/104
f 32/169/105 33/170/107 73/171/108 72/172/106
f 33/173/107 34/174/109 74/175/110 73/176/108
f 34/177/109 35/178/111 75/179/112 74/180/110
f 35/181/111 36/182/113 76/183/114 75/184/112
f 36/185/113 37/186/115 77/187/116 76/188/114
f 37/189/115 38/190/117 78/191/118 77/192/116
f 38/193/117 39/194/119 79/195/120 78/196/118
f 39/197/119 40/198/121 80/199/122 79/200/120
f 40/201/121 21/202/83 61/203/86 80/204/122
s 4
f 42/205/123 41/206/124 81/207/125 82/208/126
f 43/209/127 42/210/123 82/211/126 83/212/128
f 44/213/129 43/214/127 83/215/128 84/216/130
f 45/217/131 44/218/129 84/219/130 85/220/132
f 46/221/133 45/222/131 85/223/132 86/224/134
f 47/225/135 46/226/133 86/227/134 87/228/136
f 48/229/137 47/230/135 87/231/136 88/232/138
f 49/233/139 48/234/137 88/235/138 89/236/140
f 50/237/141 49/238/139 89/239/140 90/240/142
f 51/241/143 50/242/141 90/243/142 91/244/144
f 52/245/145 51/246/143 91/247/144 92/248/146
f 53/249/147 52/250/145 92/251/146 93/252/148
f 54/253/149 53/254/147 93/255/148 94/256/150
f 55/257/151 54/258/149 94/259/150 95/260/152
f 56/261/153 55/262/151 95/263/152 96/264/154
f 57/265/155 56/266/153 96/267/154 97/268/156
f 58/269/157 57/270/155 97/271/156 98/272/158
f 59/273/159 58/274/157 98/275/158 99/276/160
f 60/277/161 59/278/159 99/279/160 100/280/162
f 41/281/124 60/282/161 100/283/162 81/284/125
s 5
f 61/285/163 62/286/164 102/287/165 101/288/166
f 62/289/164 63/290/167 103/291/168 102/292/165
f 63/293/167 64/294/169 104/295/170 103/296/168
f 64/297/169 65/298/171 105/299/172 104/300/170
f 65/301/171 66/302/173 106/303/174 105/304/172
f 66/305/173 67/306/175 107/307/176 106/308/174
f 67/309/175 68/310/177 108/311/178 107/312/176
f 68/313/177 69/314/179 109/315/180 108/316/178
f 69/317/179 70/318/181 110/319/182 109/320/180
f 70/321/181 71/322/183 111/323/184 110/324/182
f 71/325/183 72/326/185 112/327/186 111/328/184
f 72/329/185 73/330/187 113/331/188 112/332/186
f 73/333/187 74/334/189 114/335/190 113/336/188
f 74/337/189 75/338/191 115/339/192 114/340/190
f 75/341/191 76/342/193 116/343/194 115/344/192
f 76/345/193 77/346/195 117/347/196 116/348/194
f 77/349/195 78/350/197 118/351/198 117/352/196
f 78/353/197 79/354/199 119/355/200 118/356/198
f 79/357/199 80/358/201 120/359/202 119/360/200
f 80/361/201 61/362/163 101/363/166 120/364/202
s 2
f 20/39/81 1/44/44 121/43/203
s 3
f 21/41/83 40/40/121 122/42/204
s off
f 136/365/205 135/366/206 137/367/207 138/368/208
s 6
f 40/40/209 20/39/210 123/369/211 124/370/212
s 2
f 20/39/81 121/43/203 125/371/213 123/369/214
s 1
f 121/43/42 122/42/41 126/372/215 125/371/216
s 3
f 122/42/204 40/40/121 124/370/217 126/372/218
s 6
f 124/370/212 123/369/211 127/373/219 128/374/220
s 2
f 123/369/214 125/371/213 129/375/221 127/373/222
s 1
f 125/371/216 126/372/215 130/376/223 129/375/224
s 3
f 126/372/218 124/370/217 128/374/225 130/376/226
s 6
f 128/374/220 127/373/219 131/377/227 132/378/228
s 2
f 127/373/222 129/375/221 133/379/229 131/377/230
s 1
f 129/375/224 130/376/223 134/380/231 133/379/232
s 3
f 130/376/226 128/374/225 132/378/233 134/380/234
s 6
f 132/378/228 131/377/227 135/366/235 136/365/236
s 2
f 131/377/230 133/379/229 137/367/237 135/366/238
s 1
f 133/379/232 134/380/231 138/368/239 137/367/240
s 3
f 134/380/234 132/378/233 136/365/241 138/368/242
g default
v 0.128746 -0.075944 -0.041832
v 0.109518 -0.075944 -0.079570
v 0.079570 -0.075944 -0.109518
v 0.041832 -0.075944 -0.128746
v -0.000000 -0.075944 -0.135372
v -0.041832 -0.075944 -0.128746
v -0.079570 -0.075944 -0.109518
v -0.109518 -0.075944 -0.079570
v -0.128746 -0.075944 -0.041832
v -0.135372 -0.075944 -0.000000
v -0.128746 -0.075944 0.041832
v -0.109518 -0.075944 0.079570
v -0.079570 -0.075944 0.109518
v -0.041832 -0.075944 0.128746
v -0.000000 -0.075944 0.135372
v 0.041832 -0.075944 0.128746
v 0.079570 -0.075944 0.109518
v 0.109518 -0.075944 0.079570
v 0.128746 -0.075944 0.041832
v 0.135372 -0.075944 -0.000000
v 0.109518 0.075944 -0.079570
v 0.128746 0.075944 -0.041832
v 0.079570 0.075944 -0.109518
v 0.041832 0.075944 -0.128746
v -0.000000 0.075944 -0.135372
v -0.041832 0.075944 -0.128746
v -0.079570 0.075944 -0.109518
v -0.109518 0.075944 -0.079570
v -0.128746 0.075944 -0.041832
v -0.135372 0.075944 -0.000000
v -0.128746 0.075944 0.041832
v -0.109518 0.075944 0.079570
v -0.079570 0.075944 0.109518
v -0.041832 0.075944 0.128746
v -0.000000 0.075944 0.135372
v 0.041832 0.075944 0.128746
v 0.079570 0.075944 0.109518
v 0.109518 0.075944 0.079570
v 0.128746 0.075944 0.041832
v 0.135372 0.075944 -0.000000
v 0.116065 -0.075944 -0.084326
v 0.136442 -0.075944 -0.044333
v 0.084326 -0.075944 -0.116065
v 0.044333 -0.075944 -0.136442
v -0.000000 -0.075944 -0.143464
v -0.044333 -0.075944 -0.136442
v -0.084326 -0.075944 -0.116065
v -0.116065 -0.075944 -0.084326
v -0.136442 -0.075944 -0.044333
v -0.143464 -0.075944 -0.000000
v -0.136442 -0.075944 0.044333
v -0.116065 -0.075944 0.084326
v -0.084326 -0.075944 0.116065
v -0.044333 -0.075944 0.136442
v -0.000000 -0.075944 0.143464
v 0.044333 -0.075944 0.136442
v 0.084326 -0.075944 0.116065
v 0.116065 -0.075944 0.084326
v 0.136442 -0.075944 0.044333
v 0.143464 -0.075944 -0.000000
v 0.136442 0.075944 -0.044333
v 0.116065 0.075944 -0.084326
v 0.084326 0.075944 -0.116065
v 0.044333 0.075944 -0.136442
v -0.000000 0.075944 -0.143464
v -0.044333 0.075944 -0.136442
v -0.084326 0.075944 -0.116065
v -0.116065 0.075944 -0.084326
v -0.136442 0.075944 -0.044333
v -0.143464 0.075944 -0.000000
v -0.136442 0.075944 0.044333
v -0.116065 0.075944 0.084326
v -0.084326 0.075944 0.116065
v -0.044333 0.075944 0.136442
v -0.000000 0.075944 0.143464
v 0.044333 0.075944 0.136442
v 0.084326 0.075944 0.116065
v 0.116065 0.075944 0.084326
v 0.136442 0.075944 0.044333
v 0.143464 0.075944 -0.000000
vt 0.000000 0.000000
vt 1.000000 0.000000
vt 1.000000 1.000000
vt 0.000000 1.000000
vt 0.000000 0.000000
vt 1.000000 0.000000
vt 1.000000 1.000000
vt 0.000000 1.000000
vt 0.000000 0.000000
vt 1.000000 0.000000
vt 1.000000 1.000000
vt 0.000000 1.000000
vt 0.000000 0.000000
vt 1.000000 0.000000
vt 1.000000 1.000000
vt 0.000000 1.000000
vt 0.000000 0.000000
vt 1.000000 0.000000
vt 1.000000 1.000000
vt 0.000000 1.000000
vt 0.000000 0.000000
vt 1.000000 0.000000
vt 1.000000 1.000000
vt 0.000000 1.000000
vt 0.000000 0.000000
vt 1.000000 0.000000
vt 1.000000 1.000000
vt 0.000000 1.000000
vt 0.000000 0.000000
vt 1.000000 0.000000
vt 1.000000 1.000000
vt 0.000000 1.000000
vt 0.000000 0.000000
vt 1.000000 0.000000
vt 1.000000 1.000000
vt 0.000000 1.000000
vt 0.000000 0.000000
vt 1.000000 0.000000
vt 1.000000 1.000000
vt 0.000000 1.000000
vt 0.000000 0.000000
vt 1.000000 0.000000
vt 1.000000 1.000000
vt 0.000000 1.000000
vt 0.000000 0.000000
vt 1.000000 0.000000
vt 1.000000 1.000000
vt 0.000000 1.000000
vt 0.000000 0.000000
vt 1.000000 0.000000
vt 1.000000 1.000000
vt 0.000000 1.000000
vt 0.000000 0.000000
vt 1.000000 0.000000
vt 1.000000 1.000000
vt 0.000000 1.000000
vt 0.000000 0.000000
vt 1.000000 0.000000
vt 1.000000 1.000000
vt 0.000000 1.000000
vt 0.000000 0.000000
vt 1.000000 0.000000
vt 1.000000 1.000000
vt 0.000000 1.000000
vt 0.000000 0.000000
vt 1.000000 0.000000
vt 1.000000 1.000000
vt 0.000000 1.000000
vt 0.000000 0.000000
vt 1.000000 0.000000
vt 1.000000 1.000000
vt 0.000000 1.000000
vt 0.000000 0.000000
vt 1.000000 0.000000
vt 1.000000 1.000000
vt 0.000000 1.000000
vt 0.000000 0.000000
vt 1.000000 0.000000
vt 1.000000 1.000000
vt 0.000000 1.000000
vt 0.000000 0.000000
vt 1.000000 0.000000
vt 1.000000 1.000000
vt 0.000000 1.000000
vt 0.000000 0.000000
vt 1.000000 0.000000
vt 1.000000 1.000000
vt 0.000000 1.000000
vt 0.000000 0.000000
vt 1.000000 0.000000
vt 1.000000 1.000000
vt 0.000000 1.000000
vt 0.000000 0.000000
vt 1.000000 0.000000
vt 1.000000 1.000000
vt 0.000000 1.000000
vt 0.000000 0.000000
vt 1.000000 0.000000
vt 1.000000 1.000000
vt 0.000000 1.000000
vt 0.000000 0.000000
vt 1.000000 0.000000
vt 1.000000 1.000000
vt 0.000000 1.000000
vt 0.000000 0.000000
vt 1.000000 0.000000
vt 1.000000 1.000000
vt 0.000000 1.000000
vt 0.000000 0.000000
vt 1.000000 0.000000
vt 1.000000 1.000000
vt 0.000000 1.000000
vt 0.000000 0.000000
vt 1.000000 0.000000
vt 1.000000 1.000000
vt 0.000000 1.000000
vt 0.000000 0.000000
vt 1.000000 0.000000
vt 1.000000 1.000000
vt 0.000000 1.000000
vt 0.000000 0.000000
vt 1.000000 0.000000
vt 1.000000 1.000000
vt 0.000000 1.000000
vt 0.000000 0.000000
vt 1.000000 0.000000
vt 1.000000 1.000000
vt 0.000000 1.000000
vt 0.000000 0.000000
vt 1.000000 0.000000
vt 1.000000 1.000000
vt 0.000000 1.000000
vt 0.000000 0.000000
vt 1.000000 0.000000
vt 1.000000 1.000000
vt 0.000000 1.000000
vt 0.000000 0.000000
vt 1.000000 0.000000
vt 1.000000 1.000000
vt 0.000000 1.000000
vt 0.000000 0.000000
vt 1.000000 0.000000
vt 1.000000 1.000000
vt 0.000000 1.000000
vt 0.000000 0.000000
vt 1.000000 0.000000
vt 1.000000 1.000000
vt 0.000000 1.000000
vt 0.000000 0.000000
vt 1.000000 0.000000
vt 1.000000 1.000000
vt 0.000000 1.000000
vt 0.000000 0.000000
vt 1.000000 0.000000
vt 1.000000 1.000000
vt 0.000000 1.000000
vt 0.000000 0.000000
vt 1.000000 0.000000
vt 1.000000 1.000000
vt 0.000000 1.000000
vt 0.000000 0.000000
vt 1.000000 0.000000
vt 0.000000 0.000000
vt 1.000000 0.000000
vt 0.000000 0.000000
vt 1.000000 0.000000
vt 0.000000 0.000000
vt 1.000000 0.000000
vt 0.000000 0.000000
vt 1.000000 0.000000
vt 0.000000 0.000000
vt 1.000000 0.000000
vt 0.000000 0.000000
vt 1.000000 0.000000
vt 0.000000 0.000000
vt 1.000000 0.000000
vt 0.000000 0.000000
vt 1.000000 0.000000
vt 0.000000 0.000000
vt 1.000000 0.000000
vt 0.000000 0.000000
vt 1.000000 0.000000
vt 0.000000 0.000000
vt 1.000000 0.000000
vt 0.000000 0.000000
vt 1.000000 0.000000
vt 0.000000 0.000000
vt 1.000000 0.000000
vt 0.000000 0.000000
vt 1.000000 0.000000
vt 0.000000 0.000000
vt 1.000000 0.000000
vt 0.000000 0.000000
vt 1.000000 0.000000
vt 0.000000 0.000000
vt 1.000000 0.000000
vt 0.000000 0.000000
vt 1.000000 0.000000
vt 0.000000 0.000000
vt 1.000000 0.000000
vt 0.000000 0.000000
vt 1.000000 0.000000
vt 0.000000 0.000000
vt 1.000000 0.000000
vt 0.000000 0.000000
vt 1.000000 0.000000
vt 0.000000 0.000000
vt 1.000000 0.000000
vt 0.000000 0.000000
vt 1.000000 0.000000
vt 0.000000 0.000000
vt 1.000000 0.000000
vt 0.000000 0.000000
vt 1.000000 0.000000
vt 0.000000 0.000000
vt 1.000000 0.000000
vt 0.000000 0.000000
vt 1.000000 0.000000
vt 0.000000 0.000000
vt 1.000000 0.000000
vt 0.000000 0.000000
vt 1.000000 0.000000
vt 0.000000 0.000000
vt 1.000000 0.000000
vt 0.000000 0.000000
vt 1.000000 0.000000
vt 0.000000 0.000000
vt 1.000000 0.000000
vt 0.000000 0.000000
vt 1.000000 0.000000
vt 0.000000 0.000000
vt 1.000000 0.000000
vt 0.000000 0.000000
vt 1.000000 0.000000
vt 0.000000 0.000000
vt 1.000000 0.000000
vt 0.000000 0.000000
vt 1.000000 0.000000
vt 0.000000 0.000000
vt 1.000000 0.000000
vn 0.000000 -1.000000 0.000000
vn 0.000000 -1.000000 0.000000
vn 0.000000 -1.000000 0.000000
vn 0.000000 -1.000000 0.000000
vn 0.000000 -1.000000 0.000000
vn 0.000000 -1.000000 0.000000
vn 0.000000 -1.000000 -0.000000
vn 0.000000 -1.000000 -0.000000
vn 0.000000 -1.000000 -0.000000
vn 0.000000 -1.000000 -0.000000
vn 0.000000 -1.000000 -0.000000
vn 0.000000 -1.000000 -0.000000
vn 0.000000 -1.000000 -0.000000
vn 0.000000 -1.000000 -0.000000
vn 0.000000 -1.000000 -0.000000
vn 0.000000 -1.000000 -0.000000
vn 0.000000 -1.000000 -0.000000
vn 0.000000 -1.000000 -0.000000
vn 0.000000 -1.000000 -0.000000
vn 0.000000 -1.000000 -0.000000
vn 0.000000 -1.000000 -0.000000
vn 0.000000 -1.000000 -0.000000
vn 0.000000 -1.000000 -0.000000
vn 0.000000 -1.000000 -0.000000
vn 0.000000 -1.000000 -0.000000
vn 0.000000 -1.000000 -0.000000
vn 0.000000 -1.000000 -0.000000
vn 0.000000 -1.000000 -0.000000
vn 0.000000 -1.000000 0.000000
vn 0.000000 -1.000000 0.000000
vn 0.000000 -1.000000 0.000000
vn 0.000000 -1.000000 0.000000
vn 0.000000 -1.000000 0.000000
vn 0.000000 -1.000000 0.000000
vn 0.000000 -1.000000 0.000000
vn 0.000000 -1.000000 0.000000
vn 0.000000 -1.000000 -0.000000
vn 0.000000 -1.000000 -0.000000
vn 0.000000 -1.000000 -0.000000
vn 0.000000 -1.000000 -0.000000
vn 0.000000 1.000000 0.000000
vn 0.000000 1.000000 0.000000
vn 0.000000 1.000000 0.000000
vn 0.000000 1.000000 0.000000
vn 0.000000 1.000000 -0.000000
vn 0.000000 1.000000 0.000000
vn 0.000000 1.000000 -0.000000
vn 0.000000 1.000000 -0.000000
vn 0.000000 1.000000 -0.000000
vn 0.000000 1.000000 -0.000000
vn 0.000000 1.000000 0.000000
vn 0.000000 1.000000 0.000000
vn 0.000000 1.000000 0.000000
vn 0.000000 1.000000 0.000000
vn 0.000000 1.000000 0.000000
vn 0.000000 1.000000 0.000000
vn 0.000000 1.000000 0.000000
vn 0.000000 1.000000 0.000000
vn 0.000000 1.000000 0.000000
vn 0.000000 1.000000 0.000000
vn 0.000000 1.000000 -0.000000
vn 0.000000 1.000000 -0.000000
vn 0.000000 1.000000 -0.000000
vn 0.000000 1.000000 -0.000000
vn 0.000000 1.000000 0.000000
vn 0.000000 1.000000 0.000000
vn 0.000000 1.000000 0.000000
vn 0.000000 1.000000 0.000000
vn 0.000000 1.000000 0.000000
vn 0.000000 1.000000 0.000000
vn 0.000000 1.000000 -0.000000
vn 0.000000 1.000000 -0.000000
vn 0.000000 1.000000 0.000000
vn 0.000000 1.000000 0.000000
vn 0.000000 1.000000 0.000000
vn 0.000000 1.000000 0.000000
vn 0.000000 1.000000 -0.000000
vn 0.000000 1.000000 -0.000000
vn 0.000000 1.000000 0.000000
vn 0.000000 1.000000 0.000000
vn -0.809018 -0.000000 0.587784
vn -0.951056 0.000000 0.309017
vn -0.951056 0.000000 0.309017
vn -0.809018 -0.000000 0.587784
vn -0.587785 -0.000000 0.809017
vn -0.587785 -0.000000 0.809017
vn -0.309016 -0.000000 0.951057
vn -0.309016 -0.000000 0.951057
vn 0.000000 0.000000 1.000000
vn 0.000000 0.000000 1.000000
vn 0.309016 0.000000 0.951057
vn 0.309016 0.000000 0.951057
vn 0.587785 -0.000000 0.809017
vn 0.587785 -0.000000 0.809017
vn 0.809017 -0.000000 0.587785
vn 0.809017 -0.000000 0.587785
vn 0.951057 -0.000000 0.309016
vn 0.951057 -0.000000 0.309016
vn 1.000000 0.000000 -0.000000
vn 1.000000 0.000000 -0.000000
vn 0.951057 -0.000000 -0.309016
vn 0.951057 -0.000000 -0.309016
vn 0.809017 -0.000000 -0.587786
vn 0.809017 -0.000000 -0.587786
vn 0.587786 -0.000000 -0.809017
vn 0.587786 -0.000000 -0.809017
vn 0.309018 0.000000 -0.951056
vn 0.309018 0.000000 -0.951056
vn -0.000000 0.000000 -1.000000
vn -0.000000 0.000000 -1.000000
vn -0.309018 0.000000 -0.951056
vn -0.309018 0.000000 -0.951056
vn -0.587786 0.000000 -0.809017
vn -0.587786 0.000000 -0.809017
vn -0.809017 0.000000 -0.587785
vn -0.809017 0.000000 -0.587785
vn -0.951056 0.000000 -0.309018
vn -0.951056 0.000000 -0.309018
vn -1.000000 0.000000 0.000000
vn -1.000000 0.000000 0.000000
s 1
g GEO_CintaBase
usemtl initialShadingGroup
f 179/381/243 180/382/244 139/383/245 140/384/246
f 181/385/247 179/386/243 140/387/246 141/388/248
f 182/389/249 181/390/247 141/391/248 142/392/250
f 183/393/251 182/394/249 142/395/250 143/396/252
f 184/397/253 183/398/251 143/399/252 144/400/254
f 185/401/255 184/402/253 144/403/254 145/404/256
f 186/405/257 185/406/255 145/407/256 146/408/258
f 187/409/259 186/410/257 146/411/258 147/412/260
f 188/413/261 187/414/259 147/415/260 148/416/262
f 189/417/263 188/418/261 148/419/262 149/420/264
f 190/421/265 189/422/263 149/423/264 150/424/266
f 191/425/267 190/426/265 150/427/266 151/428/268
f 192/429/269 191/430/267 151/431/268 152/432/270
f 193/433/271 192/434/269 152/435/270 153/436/272
f 194/437/273 193/438/271 153/439/272 154/440/274
f 195/441/275 194/442/273 154/443/274 155/444/276
f 196/445/277 195/446/275 155/447/276 156/448/278
f 197/449/279 196/450/277 156/451/278 157/452/280
f 198/453/281 197/454/279 157/455/280 158/456/282
f 180/457/244 198/458/281 158/459/282 139/460/245
s 2
f 199/461/283 200/462/284 159/463/285 160/464/286
f 200/465/284 201/466/287 161/467/288 159/468/285
f 201/469/287 202/470/289 162/471/290 161/472/288
f 202/473/289 203/474/291 163/475/292 162/476/290
f 203/477/291 204/478/293 164/479/294 163/480/292
f 204/481/293 205/482/295 165/483/296 164/484/294
f 205/485/295 206/486/297 166/487/298 165/488/296
f 206/489/297 207/490/299 167/491/300 166/492/298
f 207/493/299 208/494/301 168/495/302 167/496/300
f 208/497/301 209/498/303 169/499/304 168/500/302
f 209/501/303 210/502/305 170/503/306 169/504/304
f 210/505/305 211/506/307 171/507/308 170/508/306
f 211/509/307 212/510/309 172/511/310 171/512/308
f 212/513/309 213/514/311 173/515/312 172/516/310
f 213/517/311 214/518/313 174/519/314 173/520/312
f 214/521/313 215/522/315 175/523/316 174/524/314
f 215/525/315 216/526/317 176/527/318 175/528/316
f 216/529/317 217/530/319 177/531/320 176/532/318
f 217/533/319 218/534/321 178/535/322 177/536/320
f 218/537/321 199/538/283 160/539/286 178/540/322
s 3
f 140/541/323 139/542/324 160/543/325 159/544/326
f 141/545/327 140/546/323 159/547/326 161/548/328
f 142/549/329 141/550/327 161/551/328 162/552/330
f 143/553/331 142/554/329 162/555/330 163/556/332
f 144/557/333 143/558/331 163/559/332 164/560/334
f 145/561/335 144/562/333 164/563/334 165/564/336
f 146/565/337 145/566/335 165/567/336 166/568/338
f 147/569/339 146/570/337 166/571/338 167/572/340
f 148/573/341 147/574/339 167/575/340 168/576/342
f 149/577/343 148/578/341 168/579/342 169/580/344
f 150/581/345 149/582/343 169/583/344 170/584/346
f 151/585/347 150/586/345 170/587/346 171/588/348
f 152/589/349 151/590/347 171/591/348 172/592/350
f 153/593/351 152/594/349 172/595/350 173/596/352
f 154/597/353 153/598/351 173/599/352 174/600/354
f 155/601/355 154/602/353 174/603/354 175/604/356
f 156/605/357 155/606/355 175/607/356 176/608/358
f 157/609/359 156/610/357 176/611/358 177/612/360
f 158/613/361 157/614/359 177/615/360 178/616/362
f 139/617/324 158/618/361 178/619/362 160/620/325
