# This file uses millimeters as units for non-parametric coordinates.

mtllib GEO_TapaCFE.mtl
g default
v 0.801372 0.088408 0.172031
v 0.801372 0.079955 0.180485
v 0.801372 0.068407 0.183579
v 0.801372 0.091502 0.160484
v 0.786527 0.093087 0.174733
v 0.786527 0.082656 0.185164
v 0.786527 0.068407 0.188982
v 0.786527 0.096905 0.160484
v 0.778628 0.104936 0.181574
v 0.778628 0.089497 0.197013
v 0.778628 0.068407 0.202664
v 0.778628 0.110587 0.160484
v 0.781371 0.118409 0.189353
v 0.781371 0.097276 0.210486
v 0.781371 0.068407 0.218222
v 0.781371 0.126145 0.160484
v 0.793473 0.127204 0.194430
v 0.793473 0.102353 0.219281
v 0.793473 0.068407 0.228377
v 0.793473 0.136300 0.160484
v 0.809271 0.127204 0.194430
v 0.809271 0.102353 0.219281
v 0.809271 0.068407 0.228377
v 0.809271 0.136300 0.160484
v 0.821373 0.118409 0.189353
v 0.821373 0.097276 0.210486
v 0.821373 0.068407 0.218222
v 0.821373 0.126145 0.160484
v 0.824117 0.104936 0.181574
v 0.824117 0.089497 0.197013
v 0.824117 0.068407 0.202664
v 0.824117 0.110587 0.160484
v 0.816218 0.093087 0.174733
v 0.816218 0.082656 0.185164
v 0.816218 0.068407 0.188982
v 0.816218 0.096905 0.160484
v 0.801372 -0.018384 0.183579
v 0.786527 -0.018384 0.188982
v 0.778628 -0.018384 0.202664
v 0.781371 -0.018384 0.218222
v 0.793473 -0.018384 0.228377
v 0.809271 -0.018384 0.228377
v 0.821373 -0.018384 0.218222
v 0.824117 -0.018384 0.202664
v 0.816218 -0.018384 0.188982
v 0.801372 0.088408 -0.172031
v 0.801372 0.079955 -0.180485
v 0.801372 0.068407 -0.183579
v 0.801372 0.091502 -0.160484
v 0.786527 0.093087 -0.174733
v 0.786527 0.082656 -0.185164
v 0.786527 0.068407 -0.188982
v 0.786527 0.096905 -0.160484
v 0.778628 0.104936 -0.181574
v 0.778628 0.089497 -0.197013
v 0.778628 0.068407 -0.202664
v 0.778628 0.110587 -0.160484
v 0.781371 0.118409 -0.189353
v 0.781371 0.097276 -0.210486
v 0.781371 0.068407 -0.218222
v 0.781371 0.126145 -0.160484
v 0.793473 0.127204 -0.194430
v 0.793473 0.102353 -0.219281
v 0.793473 0.068407 -0.228377
v 0.793473 0.136300 -0.160484
v 0.809271 0.127204 -0.194430
v 0.809271 0.102353 -0.219281
v 0.809271 0.068407 -0.228377
v 0.809271 0.136300 -0.160484
v 0.821373 0.118409 -0.189353
v 0.821373 0.097276 -0.210486
v 0.821373 0.068407 -0.218222
v 0.821373 0.126145 -0.160484
v 0.824117 0.104936 -0.181574
v 0.824117 0.089497 -0.197013
v 0.824117 0.068407 -0.202664
v 0.824117 0.110587 -0.160484
v 0.816218 0.093087 -0.174733
v 0.816218 0.082656 -0.185164
v 0.816218 0.068407 -0.188982
v 0.816218 0.096905 -0.160484
v 0.801372 -0.018384 -0.183579
v 0.786527 -0.018384 -0.188982
v 0.778628 -0.018384 -0.202664
v 0.781371 -0.018384 -0.218222
v 0.793473 -0.018384 -0.228377
v 0.809271 -0.018384 -0.228377
v 0.821373 -0.018384 -0.218222
v 0.824117 -0.018384 -0.202664
v 0.816218 -0.018384 -0.188982
v -0.803333 0.088408 0.172031
v -0.803333 0.079955 0.180485
v -0.803333 0.068407 0.183579
v -0.803333 0.091502 0.160484
v -0.818178 0.093087 0.174733
v -0.818178 0.082656 0.185164
v -0.818178 0.068407 0.188982
v -0.818178 0.096905 0.160484
v -0.826077 0.104936 0.181574
v -0.826077 0.089497 0.197013
v -0.826077 0.068407 0.202664
v -0.826077 0.110587 0.160484
v -0.823334 0.118409 0.189353
v -0.823334 0.097276 0.210486
v -0.823334 0.068407 0.218222
v -0.823334 0.126145 0.160484
v -0.811232 0.127204 0.194430
v -0.811232 0.102353 0.219281
v -0.811232 0.068407 0.228377
v -0.811232 0.136300 0.160484
v -0.795434 0.127204 0.194430
v -0.795434 0.102353 0.219281
v -0.795434 0.068407 0.228377
v -0.795434 0.136300 0.160484
v -0.783332 0.118409 0.189353
v -0.783332 0.097276 0.210486
v -0.783332 0.068407 0.218222
v -0.783332 0.126145 0.160484
v -0.780588 0.104936 0.181574
v -0.780588 0.089497 0.197013
v -0.780588 0.068407 0.202664
v -0.780588 0.110587 0.160484
v -0.788487 0.093087 0.174733
v -0.788487 0.082656 0.185164
v -0.788487 0.068407 0.188982
v -0.788487 0.096905 0.160484
v -0.803333 -0.018384 0.183579
v -0.818178 -0.018384 0.188982
v -0.826077 -0.018384 0.202664
v -0.823334 -0.018384 0.218222
v -0.811232 -0.018384 0.228377
v -0.795434 -0.018384 0.228377
v -0.783332 -0.018384 0.218222
v -0.780588 -0.018384 0.202664
v -0.788487 -0.018384 0.188982
v -0.803333 0.088408 -0.172031
v -0.803333 0.079955 -0.180485
v -0.803333 0.068407 -0.183579
v -0.803333 0.091502 -0.160484
v -0.818178 0.093087 -0.174733
v -0.818178 0.082656 -0.185164
v -0.818178 0.068407 -0.188982
v -0.818178 0.096905 -0.160484
v -0.826077 0.104936 -0.181574
v -0.826077 0.089497 -0.197013
v -0.826077 0.068407 -0.202664
v -0.826077 0.110587 -0.160484
v -0.823334 0.118409 -0.189353
v -0.823334 0.097276 -0.210486
v -0.823334 0.068407 -0.218222
v -0.823334 0.126145 -0.160484
v -0.811232 0.127204 -0.194430
v -0.811232 0.102353 -0.219281
v -0.811232 0.068407 -0.228377
v -0.811232 0.136300 -0.160484
v -0.795434 0.127204 -0.194430
v -0.795434 0.102353 -0.219281
v -0.795434 0.068407 -0.228377
v -0.795434 0.136300 -0.160484
v -0.783332 0.118409 -0.189353
v -0.783332 0.097276 -0.210486
v -0.783332 0.068407 -0.218222
v -0.783332 0.126145 -0.160484
v -0.780588 0.104936 -0.181574
v -0.780588 0.089497 -0.197013
v -0.780588 0.068407 -0.202664
v -0.780588 0.110587 -0.160484
v -0.788487 0.093087 -0.174733
v -0.788487 0.082656 -0.185164
v -0.788487 0.068407 -0.188982
v -0.788487 0.096905 -0.160484
v -0.803333 -0.018384 -0.183579
v -0.818178 -0.018384 -0.188982
v -0.826077 -0.018384 -0.202664
v -0.823334 -0.018384 -0.218222
v -0.811232 -0.018384 -0.228377
v -0.795434 -0.018384 -0.228377
v -0.783332 -0.018384 -0.218222
v -0.780588 -0.018384 -0.202664
v -0.788487 -0.018384 -0.188982
vt 0.000000 1.000000
vt 0.083333 1.000000
vt 0.166667 1.000000
vt 0.916667 1.000000
vt 1.000000 1.000000
vt 0.000000 0.888889
vt 0.083333 0.888889
vt 0.166667 0.888889
vt 0.916667 0.888889
vt 1.000000 0.888889
vt 0.000000 0.777778
vt 0.083333 0.777778
vt 0.166667 0.777778
vt 0.916667 0.777778
vt 1.000000 0.777778
vt 0.000000 0.666667
vt 0.083333 0.666667
vt 0.166667 0.666667
vt 0.916667 0.666667
vt 1.000000 0.666667
vt 0.000000 0.555556
vt 0.083333 0.555556
vt 0.166667 0.555556
vt 0.916667 0.555556
vt 1.000000 0.555556
vt 0.000000 0.444444
vt 0.083333 0.444444
vt 0.166667 0.444444
vt 0.916667 0.444444
vt 1.000000 0.444444
vt 0.000000 0.333333
vt 0.083333 0.333333
vt 0.166667 0.333333
vt 0.916667 0.333333
vt 1.000000 0.333333
vt 0.000000 0.222222
vt 0.083333 0.222222
vt 0.166667 0.222222
vt 0.916667 0.222222
vt 1.000000 0.222222
vt 0.000000 0.111111
vt 0.083333 0.111111
vt 0.166667 0.111111
vt 0.916667 0.111111
vt 1.000000 0.111111
vt 0.000000 0.000000
vt 0.083333 0.000000
vt 0.166667 0.000000
vt 0.916667 0.000000
vt 1.000000 0.000000
vt 0.000000 0.000000
vt 1.000000 0.000000
vt 0.000000 0.000000
vt 1.000000 0.000000
vt 0.000000 0.000000
vt 1.000000 0.000000
vt 0.000000 0.000000
vt 1.000000 0.000000
vt 0.000000 0.000000
vt 1.000000 0.000000
vt 0.000000 0.000000
vt 1.000000 0.000000
vt 0.000000 0.000000
vt 1.000000 0.000000
vt 0.000000 0.000000
vt 1.000000 0.000000
vt 0.000000 0.000000
vt 1.000000 0.000000
vt 0.000000 0.000000
vt 1.000000 0.000000
vt 1.000000 1.000000
vt 0.000000 1.000000
vt 0.000000 0.000000
vt 1.000000 0.000000
vt 1.000000 1.000000
vt 0.000000 1.000000
vt 0.000000 0.000000
vt 1.000000 0.000000
vt 1.000000 1.000000
vt 0.000000 1.000000
vt 0.000000 0.000000
vt 1.000000 0.000000
vt 1.000000 1.000000
vt 0.000000 1.000000
vt 0.000000 0.000000
vt 1.000000 0.000000
vt 1.000000 1.000000
vt 0.000000 1.000000
vt 0.000000 0.000000
vt 1.000000 0.000000
vt 1.000000 1.000000
vt 0.000000 1.000000
vt 0.000000 0.000000
vt 1.000000 0.000000
vt 1.000000 1.000000
vt 0.000000 1.000000
vt 0.000000 0.000000
vt 1.000000 0.000000
vt 1.000000 1.000000
vt 0.000000 1.000000
vt 0.000000 0.000000
vt 1.000000 0.000000
vt 1.000000 1.000000
vt 0.000000 1.000000
vt 0.083333 1.000000
vt 0.000000 1.000000
vt 0.000000 0.888889
vt 0.083333 0.888889
vt 0.166667 1.000000
vt 0.166667 0.888889
vt 1.000000 1.000000
vt 0.916667 1.000000
vt 0.916667 0.888889
vt 1.000000 0.888889
vt 0.000000 0.777778
vt 0.083333 0.777778
vt 0.166667 0.777778
vt 0.916667 0.777778
vt 1.000000 0.777778
vt 0.000000 0.666667
vt 0.083333 0.666667
vt 0.166667 0.666667
vt 0.916667 0.666667
vt 1.000000 0.666667
vt 0.000000 0.555556
vt 0.083333 0.555556
vt 0.166667 0.555556
vt 0.916667 0.555556
vt 1.000000 0.555556
vt 0.000000 0.444444
vt 0.083333 0.444444
vt 0.166667 0.444444
vt 0.916667 0.444444
vt 1.000000 0.444444
vt 0.000000 0.333333
vt 0.083333 0.333333
vt 0.166667 0.333333
vt 0.916667 0.333333
vt 1.000000 0.333333
vt 0.000000 0.222222
vt 0.083333 0.222222
vt 0.166667 0.222222
vt 0.916667 0.222222
vt 1.000000 0.222222
vt 0.000000 0.111111
vt 0.083333 0.111111
vt 0.166667 0.111111
vt 0.916667 0.111111
vt 1.000000 0.111111
vt 0.000000 0.000000
vt 0.083333 0.000000
vt 0.166667 0.000000
vt 0.916667 0.000000
vt 1.000000 0.000000
vt 0.000000 0.000000
vt 1.000000 0.000000
vt 0.000000 0.000000
vt 1.000000 0.000000
vt 0.000000 0.000000
vt 1.000000 0.000000
vt 0.000000 0.000000
vt 1.000000 0.000000
vt 0.000000 0.000000
vt 1.000000 0.000000
vt 0.000000 0.000000
vt 1.000000 0.000000
vt 0.000000 0.000000
vt 1.000000 0.000000
vt 0.000000 0.000000
vt 1.000000 0.000000
vt 0.000000 0.000000
vt 1.000000 0.000000
vt 0.000000 0.000000
vt 1.000000 0.000000
vt 1.000000 1.000000
vt 0.000000 1.000000
vt 0.000000 0.000000
vt 1.000000 0.000000
vt 1.000000 1.000000
vt 0.000000 1.000000
vt 0.000000 0.000000
vt 1.000000 0.000000
vt 1.000000 1.000000
vt 0.000000 1.000000
vt 0.000000 0.000000
vt 1.000000 0.000000
vt 1.000000 1.000000
vt 0.000000 1.000000
vt 0.000000 0.000000
vt 1.000000 0.000000
vt 1.000000 1.000000
vt 0.000000 1.000000
vt 0.000000 0.000000
vt 1.000000 0.000000
vt 1.000000 1.000000
vt 0.000000 1.000000
vt 0.000000 0.000000
vt 1.000000 0.000000
vt 1.000000 1.000000
vt 0.000000 1.000000
vt 0.000000 0.000000
vt 1.000000 0.000000
vt 1.000000 1.000000
vt 0.000000 1.000000
vt 0.000000 0.000000
vt 1.000000 0.000000
vt 1.000000 1.000000
vt 0.000000 1.000000
vt 0.083333 1.000000
vt 0.083333 0.888889
vt 0.000000 0.888889
vt 0.000000 1.000000
vt 0.166667 1.000000
vt 0.166667 0.888889
vt 1.000000 1.000000
vt 1.000000 0.888889
vt 0.916667 0.888889
vt 0.916667 1.000000
vt 0.083333 0.777778
vt 0.000000 0.777778
vt 0.166667 0.777778
vt 1.000000 0.777778
vt 0.916667 0.777778
vt 0.083333 0.666667
vt 0.000000 0.666667
vt 0.166667 0.666667
vt 1.000000 0.666667
vt 0.916667 0.666667
vt 0.083333 0.555556
vt 0.000000 0.555556
vt 0.166667 0.555556
vt 1.000000 0.555556
vt 0.916667 0.555556
vt 0.083333 0.444444
vt 0.000000 0.444444
vt 0.166667 0.444444
vt 1.000000 0.444444
vt 0.916667 0.444444
vt 0.083333 0.333333
vt 0.000000 0.333333
vt 0.166667 0.333333
vt 1.000000 0.333333
vt 0.916667 0.333333
vt 0.083333 0.222222
vt 0.000000 0.222222
vt 0.166667 0.222222
vt 1.000000 0.222222
vt 0.916667 0.222222
vt 0.083333 0.111111
vt 0.000000 0.111111
vt 0.166667 0.111111
vt 1.000000 0.111111
vt 0.916667 0.111111
vt 0.083333 0.000000
vt 0.000000 0.000000
vt 0.166667 0.000000
vt 1.000000 0.000000
vt 0.916667 0.000000
vt 0.000000 0.000000
vt 0.000000 1.000000
vt 1.000000 1.000000
vt 1.000000 0.000000
vt 0.000000 0.000000
vt 0.000000 1.000000
vt 1.000000 1.000000
vt 1.000000 0.000000
vt 0.000000 0.000000
vt 0.000000 1.000000
vt 1.000000 1.000000
vt 1.000000 0.000000
vt 0.000000 0.000000
vt 0.000000 1.000000
vt 1.000000 1.000000
vt 1.000000 0.000000
vt 0.000000 0.000000
vt 0.000000 1.000000
vt 1.000000 1.000000
vt 1.000000 0.000000
vt 0.000000 0.000000
vt 0.000000 1.000000
vt 1.000000 1.000000
vt 1.000000 0.000000
vt 0.000000 0.000000
vt 0.000000 1.000000
vt 1.000000 1.000000
vt 1.000000 0.000000
vt 0.000000 0.000000
vt 0.000000 1.000000
vt 1.000000 1.000000
vt 1.000000 0.000000
vt 0.000000 0.000000
vt 0.000000 1.000000
vt 1.000000 1.000000
vt 1.000000 0.000000
vt 0.083333 1.000000
vt 0.000000 1.000000
vt 0.000000 0.888889
vt 0.083333 0.888889
vt 0.166667 1.000000
vt 0.166667 0.888889
vt 1.000000 1.000000
vt 0.916667 1.000000
vt 0.916667 0.888889
vt 1.000000 0.888889
vt 0.000000 0.777778
vt 0.083333 0.777778
vt 0.166667 0.777778
vt 0.916667 0.777778
vt 1.000000 0.777778
vt 0.000000 0.666667
vt 0.083333 0.666667
vt 0.166667 0.666667
vt 0.916667 0.666667
vt 1.000000 0.666667
vt 0.000000 0.555556
vt 0.083333 0.555556
vt 0.166667 0.555556
vt 0.916667 0.555556
vt 1.000000 0.555556
vt 0.000000 0.444444
vt 0.083333 0.444444
vt 0.166667 0.444444
vt 0.916667 0.444444
vt 1.000000 0.444444
vt 0.000000 0.333333
vt 0.083333 0.333333
vt 0.166667 0.333333
vt 0.916667 0.333333
vt 1.000000 0.333333
vt 0.000000 0.222222
vt 0.083333 0.222222
vt 0.166667 0.222222
vt 0.916667 0.222222
vt 1.000000 0.222222
vt 0.000000 0.111111
vt 0.083333 0.111111
vt 0.166667 0.111111
vt 0.916667 0.111111
vt 1.000000 0.111111
vt 0.000000 0.000000
vt 0.083333 0.000000
vt 0.166667 0.000000
vt 0.916667 0.000000
vt 1.000000 0.000000
vt 0.000000 0.000000
vt 0.000000 0.000000
vt 1.000000 0.000000
vt 1.000000 0.000000
vt 0.000000 0.000000
vt 0.000000 0.000000
vt 1.000000 0.000000
vt 1.000000 0.000000
vt 0.000000 0.000000
vt 0.000000 0.000000
vt 1.000000 0.000000
vt 1.000000 0.000000
vt 0.000000 0.000000
vt 0.000000 0.000000
vt 1.000000 0.000000
vt 1.000000 0.000000
vt 0.000000 0.000000
vt 0.000000 0.000000
vt 1.000000 0.000000
vt 1.000000 0.000000
vt 0.000000 0.000000
vt 0.000000 0.000000
vt 1.000000 0.000000
vt 1.000000 0.000000
vt 0.000000 0.000000
vt 0.000000 0.000000
vt 1.000000 0.000000
vt 1.000000 0.000000
vt 0.000000 0.000000
vt 0.000000 0.000000
vt 1.000000 0.000000
vt 1.000000 0.000000
vt 0.000000 0.000000
vt 0.000000 0.000000
vt 1.000000 0.000000
vt 1.000000 0.000000
vt 0.000000 0.000000
vt 1.000000 0.000000
vt 1.000000 1.000000
vt 0.000000 1.000000
vt 0.000000 0.000000
vt 1.000000 0.000000
vt 1.000000 1.000000
vt 0.000000 1.000000
vt 0.000000 0.000000
vt 1.000000 0.000000
vt 1.000000 1.000000
vt 0.000000 1.000000
vt 0.000000 0.000000
vt 1.000000 0.000000
vt 1.000000 1.000000
vt 0.000000 1.000000
vt 0.000000 0.000000
vt 1.000000 0.000000
vt 1.000000 1.000000
vt 0.000000 1.000000
vt 0.000000 0.000000
vt 1.000000 0.000000
vt 1.000000 1.000000
vt 0.000000 1.000000
vt 0.000000 0.000000
vt 1.000000 0.000000
vt 1.000000 1.000000
vt 0.000000 1.000000
vt 0.000000 0.000000
vt 1.000000 0.000000
vt 1.000000 1.000000
vt 0.000000 1.000000
vt 0.000000 0.000000
vt 1.000000 0.000000
vt 1.000000 1.000000
vt 0.000000 1.000000
vn -0.000001 -0.499999 -0.866026
vn -0.709137 -0.352536 -0.610609
vn -0.709137 -0.610610 -0.352535
vn -0.000001 -0.866025 -0.500001
vn -0.000000 -0.036336 -0.999340
vn -0.653318 -0.029808 -0.756497
vn -0.646080 -0.763215 -0.009109
vn -0.000000 -0.999940 -0.010912
vn -0.998191 -0.030063 -0.052071
vn -0.998191 -0.052073 -0.030063
vn -0.988582 -0.003290 -0.150646
vn -0.986066 -0.166354 -0.001045
vn -0.817298 0.288108 0.499017
vn -0.817298 0.499017 0.288107
vn -0.854202 0.037591 0.518580
vn -0.862318 0.506216 0.012362
vn -0.309402 0.475465 0.823531
vn -0.309402 0.823531 0.475466
vn -0.332722 0.066954 0.940645
vn -0.339076 0.940491 0.022454
vn 0.309402 0.475465 0.823531
vn 0.309402 0.823530 0.475466
vn 0.332722 0.066954 0.940645
vn 0.339076 0.940491 0.022454
vn 0.817298 0.288108 0.499017
vn 0.817299 0.499016 0.288108
vn 0.854202 0.037591 0.518580
vn 0.862319 0.506215 0.012362
vn 0.998191 -0.030062 -0.052071
vn 0.998191 -0.052072 -0.030063
vn 0.988582 -0.003290 -0.150646
vn 0.986065 -0.166357 -0.001045
vn 0.709137 -0.352535 -0.610609
vn 0.709138 -0.610608 -0.352536
vn 0.653318 -0.029808 -0.756497
vn 0.646079 -0.763216 -0.009109
vn 0.000000 0.000000 -1.000000
vn -0.642788 0.000000 -0.766045
vn -0.984808 0.000000 -0.173649
vn -0.866025 0.000000 0.500001
vn -0.342021 0.000000 0.939692
vn 0.342021 0.000000 0.939692
vn 0.866025 0.000000 0.500001
vn 0.984808 0.000000 -0.173649
vn 0.642788 0.000000 -0.766045
vn 0.000000 -0.499999 0.866026
vn -0.000000 -0.866024 0.500002
vn -0.709137 -0.610608 0.352536
vn -0.709137 -0.352535 0.610610
vn 0.000000 -0.036336 0.999340
vn -0.653318 -0.029809 0.756497
vn 0.000000 -0.999940 0.010912
vn -0.646080 -0.763215 0.009109
vn -0.998191 -0.052071 0.030063
vn -0.998191 -0.030063 0.052071
vn -0.988582 -0.003291 0.150646
vn -0.986066 -0.166354 0.001045
vn -0.817298 0.499017 -0.288107
vn -0.817298 0.288108 -0.499017
vn -0.854202 0.037591 -0.518580
vn -0.862318 0.506216 -0.012362
vn -0.309402 0.823531 -0.475466
vn -0.309402 0.475466 -0.823531
vn -0.332722 0.066954 -0.940645
vn -0.339076 0.940491 -0.022454
vn 0.309402 0.823530 -0.475467
vn 0.309402 0.475465 -0.823531
vn 0.332722 0.066955 -0.940645
vn 0.339076 0.940491 -0.022454
vn 0.817299 0.499016 -0.288108
vn 0.817298 0.288108 -0.499017
vn 0.854202 0.037591 -0.518580
vn 0.862319 0.506215 -0.012362
vn 0.998191 -0.052071 0.030063
vn 0.998191 -0.030063 0.052071
vn 0.988582 -0.003290 0.150646
vn 0.986065 -0.166357 0.001045
vn 0.709137 -0.610609 0.352536
vn 0.709137 -0.352535 0.610609
vn 0.653318 -0.029808 0.756497
vn 0.646079 -0.763216 0.009109
vn -0.642788 0.000000 0.766045
vn 0.000000 0.000000 1.000000
vn -0.984808 0.000000 0.173649
vn -0.866025 0.000000 -0.500001
vn -0.342021 0.000000 -0.939692
vn 0.342021 0.000000 -0.939692
vn 0.866025 0.000000 -0.500001
vn 0.984808 0.000000 0.173649
vn 0.642788 0.000000 0.766045
vn -0.000001 -0.500000 -0.866026
vn -0.709137 -0.352535 -0.610609
vn -0.709138 -0.610608 -0.352536
vn -0.000001 -0.866024 -0.500002
vn -0.000000 -0.036336 -0.999340
vn -0.653318 -0.029809 -0.756497
vn -0.646081 -0.763215 -0.009109
vn -0.000000 -0.999940 -0.010912
vn -0.998191 -0.030062 -0.052071
vn -0.998191 -0.052071 -0.030063
vn -0.988582 -0.003291 -0.150646
vn -0.986065 -0.166357 -0.001045
vn -0.817299 0.288107 0.499017
vn -0.817299 0.499016 0.288108
vn -0.854203 0.037591 0.518580
vn -0.862319 0.506215 0.012362
vn -0.309402 0.475465 0.823531
vn -0.309402 0.823530 0.475466
vn -0.332722 0.066954 0.940645
vn -0.339076 0.940491 0.022454
vn 0.309402 0.475467 0.823530
vn 0.309401 0.823531 0.475466
vn 0.332722 0.066954 0.940645
vn 0.339076 0.940491 0.022453
vn 0.817298 0.288109 0.499016
vn 0.817298 0.499018 0.288107
vn 0.854202 0.037591 0.518580
vn 0.862319 0.506215 0.012362
vn 0.998191 -0.030063 -0.052071
vn 0.998191 -0.052070 -0.030063
vn 0.988582 -0.003291 -0.150646
vn 0.986065 -0.166357 -0.001045
vn 0.709137 -0.352534 -0.610610
vn 0.709137 -0.610609 -0.352536
vn 0.653318 -0.029808 -0.756497
vn 0.646079 -0.763216 -0.009109
vn 0.000000 0.000000 -1.000000
vn -0.642788 0.000000 -0.766045
vn -0.984808 0.000000 -0.173649
vn -0.866025 0.000000 0.500001
vn -0.342021 0.000000 0.939692
vn 0.342021 0.000000 0.939692
vn 0.866025 0.000000 0.500001
vn 0.984808 0.000000 -0.173649
vn 0.642788 0.000000 -0.766045
vn -0.000000 -0.500000 0.866026
vn -0.000000 -0.866024 0.500002
vn -0.709137 -0.610608 0.352536
vn -0.709136 -0.352537 0.610609
vn 0.000000 -0.036336 0.999340
vn -0.653318 -0.029809 0.756497
vn 0.000000 -0.999940 0.010912
vn -0.646081 -0.763215 0.009109
vn -0.998191 -0.052071 0.030063
vn -0.998191 -0.030062 0.052071
vn -0.988582 -0.003291 0.150646
vn -0.986065 -0.166357 0.001045
vn -0.817298 0.499017 -0.288108
vn -0.817298 0.288108 -0.499017
vn -0.854202 0.037591 -0.518580
vn -0.862319 0.506215 -0.012362
vn -0.309402 0.823530 -0.475467
vn -0.309402 0.475465 -0.823531
vn -0.332722 0.066955 -0.940645
vn -0.339076 0.940491 -0.022454
vn 0.309402 0.823531 -0.475466
vn 0.309402 0.475466 -0.823530
vn 0.332722 0.066955 -0.940645
vn 0.339076 0.940491 -0.022454
vn 0.817298 0.499018 -0.288107
vn 0.817298 0.288108 -0.499017
vn 0.854203 0.037591 -0.518580
vn 0.862319 0.506215 -0.012362
vn 0.998191 -0.052072 0.030063
vn 0.998191 -0.030063 0.052071
vn 0.988582 -0.003291 0.150646
vn 0.986065 -0.166357 0.001045
vn 0.709137 -0.610609 0.352536
vn 0.709137 -0.352535 0.610609
vn 0.653318 -0.029808 0.756497
vn 0.646079 -0.763216 0.009109
vn -0.642788 0.000000 0.766045
vn 0.000000 0.000000 1.000000
vn -0.984808 0.000000 0.173649
vn -0.866025 0.000000 -0.500001
vn -0.342021 0.000000 -0.939692
vn 0.342021 0.000000 -0.939692
vn 0.866025 0.000000 -0.500001
vn 0.984808 0.000000 0.173649
vn 0.642788 0.000000 0.766045
s 1
g GEO_Agarraderas
usemtl standardSurface3SG
f 2/2/1 6/7/2 5/6/3 1/1/4
f 3/3/5 7/8/6 6/7/2 2/2/1
f 1/5/4 5/10/3 8/9/7 4/4/8
f 6/7/2 10/12/9 9/11/10 5/6/3
f 7/8/6 11/13/11 10/12/9 6/7/2
f 5/10/3 9/15/10 12/14/12 8/9/7
f 10/12/9 14/17/13 13/16/14 9/11/10
f 11/13/11 15/18/15 14/17/13 10/12/9
f 9/15/10 13/20/14 16/19/16 12/14/12
f 14/17/13 18/22/17 17/21/18 13/16/14
f 15/18/15 19/23/19 18/22/17 14/17/13
f 13/20/14 17/25/18 20/24/20 16/19/16
f 18/22/17 22/27/21 21/26/22 17/21/18
f 19/23/19 23/28/23 22/27/21 18/22/17
f 17/25/18 21/30/22 24/29/24 20/24/20
f 22/27/21 26/32/25 25/31/26 21/26/22
f 23/28/23 27/33/27 26/32/25 22/27/21
f 21/30/22 25/35/26 28/34/28 24/29/24
f 26/32/25 30/37/29 29/36/30 25/31/26
f 27/33/27 31/38/31 30/37/29 26/32/25
f 25/35/26 29/40/30 32/39/32 28/34/28
f 30/37/29 34/42/33 33/41/34 29/36/30
f 31/38/31 35/43/35 34/42/33 30/37/29
f 29/40/30 33/45/34 36/44/36 32/39/32
f 34/42/33 2/47/1 1/46/4 33/41/34
f 35/43/35 3/48/5 2/47/1 34/42/33
f 33/45/34 1/50/4 4/49/8 36/44/36
f 3/69/5 37/72/37 38/71/38 7/70/6
f 7/73/6 38/76/38 39/75/39 11/74/11
f 11/77/11 39/80/39 40/79/40 15/78/15
f 15/81/15 40/84/40 41/83/41 19/82/19
f 19/85/19 41/88/41 42/87/42 23/86/23
f 23/89/23 42/92/42 43/91/43 27/90/27
f 27/93/27 43/96/43 44/95/44 31/94/31
f 31/97/31 44/100/44 45/99/45 35/98/35
f 35/101/35 45/104/45 37/103/37 3/102/5
f 47/105/46 46/106/47 50/107/48 51/108/49
f 48/109/50 47/105/46 51/108/49 52/110/51
f 46/111/47 49/112/52 53/113/53 50/114/48
f 51/108/49 50/107/48 54/115/54 55/116/55
f 52/110/51 51/108/49 55/116/55 56/117/56
f 50/114/48 53/113/53 57/118/57 54/119/54
f 55/116/55 54/115/54 58/120/58 59/121/59
f 56/117/56 55/116/55 59/121/59 60/122/60
f 54/119/54 57/118/57 61/123/61 58/124/58
f 59/121/59 58/120/58 62/125/62 63/126/63
f 60/122/60 59/121/59 63/126/63 64/127/64
f 58/124/58 61/123/61 65/128/65 62/129/62
f 63/126/63 62/125/62 66/130/66 67/131/67
f 64/127/64 63/126/63 67/131/67 68/132/68
f 62/129/62 65/128/65 69/133/69 66/134/66
f 67/131/67 66/130/66 70/135/70 71/136/71
f 68/132/68 67/131/67 71/136/71 72/137/72
f 66/134/66 69/133/69 73/138/73 70/139/70
f 71/136/71 70/135/70 74/140/74 75/141/75
f 72/137/72 71/136/71 75/141/75 76/142/76
f 70/139/70 73/138/73 77/143/77 74/144/74
f 75/141/75 74/140/74 78/145/78 79/146/79
f 76/142/76 75/141/75 79/146/79 80/147/80
f 74/144/74 77/143/77 81/148/81 78/149/78
f 79/146/79 78/145/78 46/150/47 47/151/46
f 80/147/80 79/146/79 47/151/46 48/152/50
f 78/149/78 81/148/81 49/153/52 46/154/47
f 8/51/7 53/155/53 49/156/52 4/52/8
f 12/53/12 57/157/57 53/158/53 8/54/7
f 16/55/16 61/159/61 57/160/57 12/56/12
f 20/57/20 65/161/65 61/162/61 16/58/16
f 24/59/24 69/163/69 65/164/65 20/60/20
f 28/61/28 73/165/73 69/166/69 24/62/24
f 32/63/32 77/167/77 73/168/73 28/64/28
f 36/65/36 81/169/81 77/170/77 32/66/32
f 4/67/8 49/171/52 81/172/81 36/68/36
f 48/173/50 52/174/51 83/175/82 82/176/83
f 52/177/51 56/178/56 84/179/84 83/180/82
f 56/181/56 60/182/60 85/183/85 84/184/84
f 60/185/60 64/186/64 86/187/86 85/188/85
f 64/189/64 68/190/68 87/191/87 86/192/86
f 68/193/68 72/194/72 88/195/88 87/196/87
f 72/197/72 76/198/76 89/199/89 88/200/88
f 76/201/76 80/202/80 90/203/90 89/204/89
f 80/205/80 48/206/50 82/207/83 90/208/90
s 3
f 92/209/91 96/210/92 95/211/93 91/212/94
f 93/213/95 97/214/96 96/210/92 92/209/91
f 91/215/94 95/216/93 98/217/97 94/218/98
f 96/210/92 100/219/99 99/220/100 95/211/93
f 97/214/96 101/221/101 100/219/99 96/210/92
f 95/216/93 99/222/100 102/223/102 98/217/97
f 100/219/99 104/224/103 103/225/104 99/220/100
f 101/221/101 105/226/105 104/224/103 100/219/99
f 99/222/100 103/227/104 106/228/106 102/223/102
f 104/224/103 108/229/107 107/230/108 103/225/104
f 105/226/105 109/231/109 108/229/107 104/224/103
f 103/227/104 107/232/108 110/233/110 106/228/106
f 108/229/107 112/234/111 111/235/112 107/230/108
f 109/231/109 113/236/113 112/234/111 108/229/107
f 107/232/108 111/237/112 114/238/114 110/233/110
f 112/234/111 116/239/115 115/240/116 111/235/112
f 113/236/113 117/241/117 116/239/115 112/234/111
f 111/237/112 115/242/116 118/243/118 114/238/114
f 116/239/115 120/244/119 119/245/120 115/240/116
f 117/241/117 121/246/121 120/244/119 116/239/115
f 115/242/116 119/247/120 122/248/122 118/243/118
f 120/244/119 124/249/123 123/250/124 119/245/120
f 121/246/121 125/251/125 124/249/123 120/244/119
f 119/247/120 123/252/124 126/253/126 122/248/122
f 124/249/123 92/254/91 91/255/94 123/250/124
f 125/251/125 93/256/95 92/254/91 124/249/123
f 123/252/124 91/257/94 94/258/98 126/253/126
f 93/259/95 127/260/127 128/261/128 97/262/96
f 97/263/96 128/264/128 129/265/129 101/266/101
f 101/267/101 129/268/129 130/269/130 105/270/105
f 105/271/105 130/272/130 131/273/131 109/274/109
f 109/275/109 131/276/131 132/277/132 113/278/113
f 113/279/113 132/280/132 133/281/133 117/282/117
f 117/283/117 133/284/133 134/285/134 121/286/121
f 121/287/121 134/288/134 135/289/135 125/290/125
f 125/291/125 135/292/135 127/293/127 93/294/95
f 137/295/136 136/296/137 140/297/138 141/298/139
f 138/299/140 137/295/136 141/298/139 142/300/141
f 136/301/137 139/302/142 143/303/143 140/304/138
f 141/298/139 140/297/138 144/305/144 145/306/145
f 142/300/141 141/298/139 145/306/145 146/307/146
f 140/304/138 143/303/143 147/308/147 144/309/144
f 145/306/145 144/305/144 148/310/148 149/311/149
f 146/307/146 145/306/145 149/311/149 150/312/150
f 144/309/144 147/308/147 151/313/151 148/314/148
f 149/311/149 148/310/148 152/315/152 153/316/153
f 150/312/150 149/311/149 153/316/153 154/317/154
f 148/314/148 151/313/151 155/318/155 152/319/152
f 153/316/153 152/315/152 156/320/156 157/321/157
f 154/317/154 153/316/153 157/321/157 158/322/158
f 152/319/152 155/318/155 159/323/159 156/324/156
f 157/321/157 156/320/156 160/325/160 161/326/161
f 158/322/158 157/321/157 161/326/161 162/327/162
f 156/324/156 159/323/159 163/328/163 160/329/160
f 161/326/161 160/325/160 164/330/164 165/331/165
f 162/327/162 161/326/161 165/331/165 166/332/166
f 160/329/160 163/328/163 167/333/167 164/334/164
f 165/331/165 164/330/164 168/335/168 169/336/169
f 166/332/166 165/331/165 169/336/169 170/337/170
f 164/334/164 167/333/167 171/338/171 168/339/168
f 169/336/169 168/335/168 136/340/137 137/341/136
f 170/337/170 169/336/169 137/341/136 138/342/140
f 168/339/168 171/338/171 139/343/142 136/344/137
f 98/345/97 143/346/143 139/347/142 94/348/98
f 102/349/102 147/350/147 143/351/143 98/352/97
f 106/353/106 151/354/151 147/355/147 102/356/102
f 110/357/110 155/358/155 151/359/151 106/360/106
f 114/361/114 159/362/159 155/363/155 110/364/110
f 118/365/118 163/366/163 159/367/159 114/368/114
f 122/369/122 167/370/167 163/371/163 118/372/118
f 126/373/126 171/374/171 167/375/167 122/376/122
f 94/377/98 139/378/142 171/379/171 126/380/126
f 138/381/140 142/382/141 173/383/172 172/384/173
f 142/385/141 146/386/146 174/387/174 173/388/172
f 146/389/146 150/390/150 175/391/175 174/392/174
f 150/393/150 154/394/154 176/395/176 175/396/175
f 154/397/154 158/398/158 177/399/177 176/400/176
f 158/401/158 162/402/162 178/403/178 177/404/177
f 162/405/162 166/406/166 179/407/179 178/408/178
f 166/409/166 170/410/170 180/411/180 179/412/179
f 170/413/170 138/414/140 172/415/173 180/416/180
g default
v -1.033355 -0.035583 1.033355
v 1.033355 -0.035583 1.033355
v -1.033355 0.035583 1.033355
v 1.033355 0.035583 1.033355
v -1.033355 0.035583 -1.033355
v 1.033355 0.035583 -1.033355
v -1.033355 -0.035583 -1.033355
v 1.033355 -0.035583 -1.033355
vt 0.943941 0.939711
vt 0.449125 0.470000
vt 0.966039 0.053387
vt 0.967878 0.046877
vt 0.039293 0.053892
vt 0.038587 0.959806
vt 0.060680 0.073490
vt 0.394482 0.523551
vt 0.967878 0.962068
vt 0.032122 0.962068
vt 0.965329 0.959307
vt 0.032122 0.046877
vt 0.395043 0.469472
vt 0.946069 0.074276
vt 0.058561 0.938915
vt 0.448564 0.524080
vn 0.000000 0.000000 1.000000
vn 0.000000 0.000000 1.000000
vn 0.000000 0.000000 1.000000
vn 0.000000 0.000000 1.000000
vn 0.000000 1.000000 0.000000
vn 0.000000 1.000000 0.000000
vn 0.000000 1.000000 0.000000
vn 0.000000 1.000000 0.000000
vn 0.000000 0.000000 -1.000000
vn 0.000000 0.000000 -1.000000
vn 0.000000 0.000000 -1.000000
vn 0.000000 0.000000 -1.000000
vn 0.000000 -1.000000 0.000000
vn 0.000000 -1.000000 0.000000
vn 0.000000 -1.000000 0.000000
vn 0.000000 -1.000000 0.000000
vn 1.000000 0.000000 0.000000
vn 1.000000 0.000000 0.000000
vn 1.000000 0.000000 0.000000
vn 1.000000 0.000000 0.000000
vn -1.000000 0.000000 0.000000
vn -1.000000 0.000000 0.000000
vn -1.000000 0.000000 0.000000
vn -1.000000 0.000000 0.000000
s off
g GEO_Tapa
usemtl lambert2SG
f 181/417/181 182/430/182 184/419/183 183/427/184
f 183/420/185 184/425/186 186/426/187 185/428/188
f 185/422/189 186/421/190 188/423/191 187/431/192
f 187/424/193 188/429/194 182/418/195 181/432/196
f 182/430/197 188/423/198 186/421/199 184/419/200
f 187/431/201 181/417/202 183/427/203 185/422/204
